<svg width="24" height="17" viewBox="0 0 24 17" fill="none" xmlns="http://www.w3.org/2000/svg">
<path d="M23.9988 2.85771C22.228 2.79447 20.7735 3.23716 19.6351 4.18577C18.56 5.07115 17.9909 6.17787 17.9276 7.50593C17.9909 7.50593 18.0541 7.53755 18.1174 7.60079C18.1806 7.60079 18.2438 7.60079 18.3071 7.60079C18.56 7.72727 18.7814 7.79051 18.9711 7.79051C20.1727 7.85375 21.1529 8.29644 21.9118 9.11858C22.734 9.87747 23.145 10.8577 23.145 12.0593C23.145 13.2609 22.7023 14.336 21.817 15.2846C20.9948 16.17 19.9513 16.6126 18.6865 16.6126C17.0423 16.6126 15.7458 16.0119 14.7972 14.8103C13.8486 13.5455 13.3743 12.0277 13.3743 10.2569C13.3743 8.67589 13.5956 7.25296 14.0383 5.98814C14.5442 4.66008 15.2399 3.55336 16.1253 2.66798C17.0106 1.71937 18.0857 1.02372 19.3506 0.581031C21.1845 0.138342 22.734 -0.0513829 23.9988 0.0118574V2.85771ZM10.6233 2.85771C8.85253 2.79447 7.39799 3.23716 6.25965 4.18577C5.18455 5.07115 4.61538 6.17787 4.55214 7.50593C4.61538 7.50593 4.67862 7.53755 4.74186 7.60079C4.8051 7.60079 4.86834 7.60079 4.93159 7.60079C5.18455 7.72727 5.40589 7.79051 5.59562 7.79051C6.7972 7.85375 7.77744 8.29644 8.53633 9.11858C9.35846 9.87747 9.76953 10.8577 9.76953 12.0593C9.76953 13.2609 9.32684 14.336 8.44147 15.2846C7.61933 16.17 6.57585 16.6126 5.31103 16.6126C3.66676 16.6126 2.37032 16.0119 1.4217 14.8103C0.473088 13.5455 -0.0012207 12.0277 -0.0012207 10.2569C-0.0012207 8.67589 0.220123 7.25296 0.662811 5.98814C1.16874 4.66008 1.86439 3.55336 2.74977 2.66798C3.63514 1.71937 4.71024 1.02372 5.97506 0.581031C7.80906 0.138342 9.35846 -0.0513829 10.6233 0.0118574V2.85771Z" fill="#7D7D7D"/>
</svg>
